<?xml version="1.0" encoding="UTF-8"?><svg xmlns="http://www.w3.org/2000/svg" xmlns:xlink="http://www.w3.org/1999/xlink" viewBox="0 0 311.25 595.47"><defs><style>.cls-1{fill:url(#linear-gradient);}.cls-2{fill:#00a99d;}.cls-3{fill:#0071bc;}.cls-4{fill:url(#linear-gradient-3);}.cls-5{fill:url(#linear-gradient-4);}.cls-6{fill:url(#linear-gradient-2);}</style><linearGradient id="linear-gradient" x1="56.86" y1="5.25" x2="56.86" y2="407.29" gradientUnits="userSpaceOnUse"><stop offset="0" stop-color="#00a99d"/><stop offset="1" stop-color="#0071bc"/></linearGradient><linearGradient id="linear-gradient-2" x1="280.43" y1="37.05" x2="78.2" y2="37.05" gradientUnits="userSpaceOnUse"><stop offset="0" stop-color="#00a99d"/><stop offset=".92" stop-color="#0071bc"/></linearGradient><linearGradient id="linear-gradient-3" x1="75.41" y1="380.71" x2="271.52" y2="380.71" gradientUnits="userSpaceOnUse"><stop offset=".23" stop-color="#00a99d"/><stop offset=".76" stop-color="#0071bc"/></linearGradient><linearGradient id="linear-gradient-4" x1="229.94" y1="201.9" x2="85.04" y2="201.9" gradientUnits="userSpaceOnUse"><stop offset=".18" stop-color="#00a99d"/><stop offset=".85" stop-color="#0071bc"/></linearGradient></defs><g id="logo"><path class="cls-1" d="M113.71,417.71l-66.53-.03c-26.06-.01-47.18-20.81-47.18-46.45V46.49C0,20.83,21.13,.04,47.2,.04H112.56C92.33,.04,75.93,16.19,75.93,36.1v36.31c0,.95,.79,1.73,1.75,1.73h-1.75V343.7h1.75c-.96,0-1.75,.78-1.75,1.73v32.61c0,21.1,16.7,38.34,37.79,39.67Z"/><path class="cls-6" d="M77.16,74.09H243.81c22.31,0,40.39-17.8,40.39-39.75V1.72c0-.95-.78-1.72-1.75-1.72H112.04c-20.23,0-36.63,16.14-36.63,36.05v36.31c0,.95,.78,1.72,1.75,1.72Z"/><path class="cls-4" d="M282.44,417.76H115.79c-22.31,0-40.39-17.8-40.39-39.75v-32.62c0-.95,.78-1.72,1.75-1.72H247.56c20.23,0,36.63,16.14,36.63,36.05v36.31c0,.95-.78,1.72-1.75,1.72Z"/><path class="cls-5" d="M75.41,239.68h94.82c36.02,0,65.21-28.73,65.21-64.18v-11.37H75.41v75.55Z"/></g><g id="text"><g><path class="cls-3" d="M5.09,529.13h5.12v-38.49H5.09v-.92H37.12s-1.28,4.82-1.77,11.41h-.92v-5.37c0-3.23-1.16-5.12-4.27-5.12h-10.68v19.03h9.15v-5.37h.92v12.2h-.92v-5.92h-9.15v18.55h10.98c3.84,0,5-4.45,5.86-11.16h.98s-.92,5.55-.92,12.08H5.09v-.92Z"/><path class="cls-3" d="M41.08,529.13h3.78v-25.62h-3.78v-.92h12.32v6.53h.12s1.71-6.95,10.19-6.95c5.61,0,7.87,2.75,8.3,6.95h.12s1.71-6.95,10.19-6.95c5.61,0,8.42,2.75,8.42,8.36v18.61h3.78v.92h-15.8v-.92h3.36v-20.5c0-3.11-.92-4.51-3.11-4.51-4.58,0-6.83,6.04-6.83,9.46v15.56h3.78v.92h-15.8v-.92h3.36v-20.5c0-3.11-.92-4.51-3.11-4.51-4.58,0-6.83,6.04-6.83,9.46v15.56h3.36v.92h-15.8v-.92Z"/><path class="cls-3" d="M96.65,529.13h3.78v-25.62h-3.78v-.92h12.32v6.47h.12c1.22-3.42,3.54-6.89,7.99-6.89,3.6,0,6.59,2.01,6.59,5.67,0,3.84-2.81,5.61-5.86,5.61-.67,0-1.59,0-2.38-.37v-.49c2.01,.3,2.38-2.2,2.38-4.64,0-2.68-.73-4.21-2.68-4.21-1.52,0-2.81,1.04-3.97,2.93-1.34,2.2-2.07,5-2.07,6.89v15.56h4.39v.92h-16.84v-.92Z"/><path class="cls-3" d="M135.02,516.5c0,10.07,1.83,13.05,6.71,13.05,4.58,0,8.72-2.87,8.72-7.69h.98c-.06,3.54-2.01,6.04-4.7,7.44-1.89,.92-3.9,1.16-5.8,1.16-8.66,0-15.01-3.48-15.01-14.27,0-9.64,5.73-14.03,14.03-14.03,7.5,0,12.08,3.78,12.08,10.98v2.44h-17.02v.92Zm8.42-1.83v-3.36c0-5.79-.98-8.36-3.84-8.36-3.17,0-4.33,2.26-4.51,11.71h8.36Z"/><path class="cls-3" d="M173.88,490.64h-5.12v-.92h19.58v.92h-5.12v22.45c0,11.71,2.26,16.47,9.39,16.47,8.72,0,12.87-5.49,12.87-15.07v-20.19c0-2.32-.98-3.66-3.66-3.66h-1.83v-.92h11.9v.92h-1.89c-2.68,0-3.6,1.34-3.6,3.66v20.31c0,8.85-3.78,15.86-13.79,15.86-14.46,0-18.73-6.41-18.73-17.39v-22.45Z"/><path class="cls-3" d="M213.47,530.47c.43-1.52,.67-3.72,.67-5.67v-4.51h.92v.98c0,4.7,3.48,8.3,9.88,8.3,3.78,0,7.44-.98,7.44-4.27,0-6.22-18.73-1.89-18.73-14.52,0-6.1,5.12-8.6,10.68-8.6,3.05,0,5.43,.73,7.14,1.95,1.46-.18,2.44-.67,2.99-1.95h.79c-.55,1.52-.67,3.72-.67,5.67v3.11h-.92v-.98c0-2.99-2.44-6.89-9.33-6.89-3.96,0-7.08,1.16-7.08,4.09,0,6.47,18.85,2.07,18.85,14.09,0,5.37-3.84,9.21-11.16,9.21-3.42,0-5.86-.92-7.5-2.2-1.71,.24-2.68,.98-3.17,2.2h-.79Z"/><path class="cls-3" d="M243.11,503.51h-3.78v-.92h12.44v21.41c0,3.11,.98,4.51,3.11,4.51,4.58,0,6.83-6.04,6.83-9.46v-15.56h-3.78v-.92h12.44v26.54h3.78v.92h-12.32v-6.53h-.12c-1.4,3.72-4.21,6.95-10.19,6.95-5.61,0-8.42-2.75-8.42-8.36v-18.61Z"/><path class="cls-3" d="M276.42,529.13h3.78v-25.62h-3.78v-.92h12.32v6.53h.12s1.83-6.95,9.82-6.95c6.04,0,8.79,2.56,8.79,8.36v18.61h3.78v.92h-15.8v-.92h3.36v-20.5c0-3.11-.92-4.51-3.11-4.51-1.83,0-3.23,.67-4.64,2.68-1.59,2.26-2.2,5.12-2.2,6.77v15.56h3.35v.92h-15.8v-.92Z"/><path class="cls-2" d="M47.73,594.13h5.12v-38.49h-5.12v-.92h19.09c15.5,0,21.78,7.69,21.78,19.52s-5.86,20.8-21.78,20.8h-19.09v-.92Zm19.22,0c8.05,0,11.83-6.65,11.83-19.22s-3.78-19.28-11.83-19.28h-4.82v38.49h4.82Z"/><path class="cls-2" d="M92.38,594.13h5.12v-38.49h-5.12v-.92h32.03s-1.28,4.82-1.77,11.41h-.92v-5.37c0-3.23-1.16-5.12-4.27-5.12h-10.68v19.03h9.15v-5.37h.92v12.2h-.92v-5.92h-9.15v18.55h10.98c3.84,0,5-4.45,5.86-11.16h.98s-.92,5.55-.92,12.08h-31.3v-.92Z"/><path class="cls-2" d="M130.45,595.05s.43-4.21,.43-7.99v-5.55h.92v2.56c0,5.61,4.64,10.49,12.93,10.49,5.25,0,9.33-2.07,9.33-6.53,0-10.61-23.43-6.22-23.43-21.41,0-7.2,4.64-12.32,13.3-12.32,4.51,0,7.26,1.34,8.85,2.62,1.59-.12,2.62-.79,3.42-2.2h.79s-1.22,5.92-1.22,8.54v3.9h-.92v-1.95c0-5.67-3.17-10-10.98-10-5.8,0-9.09,2.44-9.09,6.41,0,10.37,23.49,5.67,23.49,21.54,0,6.83-4.33,12.32-13.6,12.32-5,0-8.24-1.52-10.25-3.11-1.46,.18-2.56,1.1-3.17,2.68h-.79Z"/><path class="cls-2" d="M162.96,594.13h5.12v-38.49h-5.12v-.92h19.52v.92h-5.12v38.49h5.12v.92h-19.52v-.92Z"/><path class="cls-2" d="M213.04,579.31h-5.73v-.92h17.63v.92h-3.6v15.74h-.92c-.3-.79-1.1-2.5-2.68-3.11-2.14,1.89-5.73,3.54-11.77,3.54-12.2,0-19.7-7.87-19.7-20.62s7.69-20.56,20.86-20.56c3.54,0,6.59,.98,8.91,2.68,2.32,.43,3.78-.92,4.27-2.26h.79c-.61,2.56-1.16,6.77-1.16,9.03v3.54h-.92v-2.32c0-5.73-4.88-9.76-11.9-9.76-7.5,0-11.04,6.53-11.04,20.07s2.75,19.4,9.76,19.4c4.94,0,7.2-2.99,7.2-7.26v-8.11Z"/><path class="cls-2" d="M227.62,594.13h1.83c2.68,0,3.66-1.34,3.66-3.66v-31.17l-.61-.85c-1.22-1.65-2.38-2.81-4.39-2.81h-1.1v-.92h13.85l20.86,27.64v-23.06c0-2.32-.98-3.66-3.66-3.66h-1.83v-.92h11.9v.92h-1.89c-2.68,0-3.6,1.34-3.6,3.66v35.87h-2.56l-26.05-34.65v29.95c0,2.32,.92,3.66,3.6,3.66h1.89v.92h-11.9v-.92Z"/></g></g></svg>